<svg xmlns="http://www.w3.org/2000/svg" width="375" height="40" viewBox="0 0 375 40" fill="none">
<path d="M141.289 1.28533L140.372 1.26164L130.44 24.1871C126.022 15.6589 107.408 23.1981 106.786 11.1105C106.673 9.04364 107.206 7.1011 108.592 5.49022C110.931 2.63563 115.012 1.46301 118.577 1.49262C121.983 1.52223 125.684 2.61194 127.952 5.09934C129.006 6.28973 129.622 7.62819 129.907 9.16801L129.948 9.59442L130.759 9.45228L130.718 9.02587C129.794 3.51214 124.186 0.716787 118.524 0.687175C112.566 0.562805 88.9061 -0.0116642 88.8943 0.000180548L88.8765 0.805623L96.925 0.995138L96.0663 37.1808L88.0178 36.9913L88 37.8027L117.298 38.4956C117.487 38.5074 117.671 38.5133 117.855 38.5193C125.038 38.691 132.708 34.2137 131.168 26.3488C131.15 26.2718 131.133 26.2007 131.115 26.1237L149.764 26.562L154.65 39.378L155.776 39.4017L154.721 37.1393L141.289 1.28533ZM117.932 37.7257C112.803 37.6072 106.549 34.652 106.087 29.0849L106.04 28.7118L105.175 28.7947L105.222 29.1678C105.578 33.3668 108.941 36.2036 112.815 37.5717L96.8836 37.1926L97.7364 1.01291L113.644 1.39194C111.364 2.07893 109.326 3.28117 107.899 5.00458C106.454 6.76945 105.809 8.92519 105.968 11.152C106.614 24.9748 128.189 15.4339 130.357 26.4909C131.749 33.8761 124.523 37.8856 117.932 37.7316V37.7257ZM131.05 25.3065L140.774 2.41058L149.462 25.7447L131.044 25.3065H131.05Z" fill="black"/>
<path d="M189.438 31.7323C189.367 31.7323 189.267 31.8034 189.124 31.9396C187.626 33.509 185.891 34.5987 183.925 35.2028C181.958 35.8128 180.117 36.1149 178.411 36.1149C175.693 36.1149 173.039 35.1732 170.439 33.2958C167.845 31.4125 165.725 28.8126 164.091 25.4842C162.45 22.1558 161.633 18.4544 161.633 14.3798C161.633 10.3052 162.616 7.69934 164.582 5.9404C166.548 4.18145 169.296 3.29902 172.814 3.29902C174.763 3.29902 176.575 3.8498 178.251 4.94544C179.921 6.04108 181.248 7.56905 182.225 9.51751C183.445 11.7502 184.055 14.2199 184.055 16.9382C184.055 18.6794 183.777 20.3851 183.22 22.0611C183.184 22.2032 183.238 22.2861 183.374 22.3217C183.51 22.3572 183.599 22.3039 183.634 22.1677L188.544 8.89566C188.615 8.61731 188.651 8.41003 188.651 8.26789C188.651 7.25516 188.058 6.25428 186.874 5.26525C185.69 4.27029 184.096 3.44708 182.095 2.78378C180.093 2.12047 177.955 1.78882 175.693 1.78882C172.104 1.78882 168.787 2.65348 165.737 4.37689C162.687 6.1003 160.259 8.46333 158.447 11.46C156.634 14.4568 155.728 17.8029 155.728 21.4925C155.728 25.1822 156.54 28.3388 158.156 31.1578C159.779 33.9769 161.953 36.1563 164.689 37.6902C167.425 39.2241 170.392 39.9881 173.596 39.9881C176.8 39.9881 179.643 39.3426 182.219 38.0574C184.795 36.7663 187.182 34.8001 189.379 32.1528C189.586 31.8744 189.604 31.7323 189.432 31.7323H189.438Z" fill="black"/>
<path d="M218.28 23.37C218.138 23.3344 218.055 23.4233 218.02 23.6305C217.635 26.1712 217.149 28.3092 216.557 30.0326C215.965 31.756 215.201 33.1952 214.259 34.3441C213.039 35.7359 211.351 36.8256 209.189 37.6073C207.028 38.3891 204.451 38.7859 201.455 38.7859C200.827 38.7859 200.377 38.6319 200.099 38.318C199.82 38.0041 199.678 37.4119 199.678 36.5413V8.22055C199.678 6.30762 200.045 4.94548 200.774 4.14596C201.508 3.34644 202.55 2.90818 203.907 2.83711C204.149 2.80158 204.262 2.72459 204.244 2.60022C204.226 2.47585 204.096 2.41663 203.853 2.41663C202.39 2.52323 201.295 2.57061 200.56 2.57061H192.512C191.849 2.57061 190.842 2.51731 189.48 2.41663C189.272 2.41663 189.166 2.47585 189.166 2.60022C189.166 2.72459 189.272 2.80158 189.48 2.83711C190.7 2.90818 191.63 3.34052 192.275 4.14596C192.921 4.94548 193.24 6.30762 193.24 8.22055V33.5091C193.24 35.4279 192.921 36.7841 192.275 37.5836C191.63 38.3832 190.7 38.8214 189.48 38.8925C189.272 38.928 189.166 39.005 189.166 39.1294C189.166 39.2538 189.272 39.313 189.48 39.313C190.836 39.2064 191.849 39.159 192.512 39.159H204.949C208.082 39.159 211.618 39.3307 215.556 39.6802L216.705 39.7868C217.019 39.7868 217.208 39.6565 217.279 39.3959C217.35 39.1353 217.386 38.6201 217.386 37.8561C217.386 36.0083 217.481 33.7815 217.676 31.1697C217.866 28.558 218.12 26.0646 218.434 23.6957C218.47 23.5239 218.416 23.4173 218.28 23.3818V23.37Z" fill="black"/>
<path d="M252.192 2.41663C251.043 2.52323 250.243 2.57061 249.787 2.57061H247.857C247.122 2.57061 245.926 2.51731 244.25 2.41663C244.007 2.41663 243.883 2.48769 243.883 2.62391C243.883 2.76012 244.007 2.83119 244.25 2.83119C245.713 2.90226 246.838 3.33459 247.62 4.14003C248.401 4.93955 248.798 6.3017 248.798 8.21462L248.852 24.4656C248.852 27.0063 248.39 29.2568 247.466 31.2053C246.542 33.1537 245.245 34.6698 243.575 35.7536C241.905 36.8315 239.968 37.3764 237.777 37.3764C234.294 37.3764 231.546 36.2511 229.545 34.0065C227.543 31.762 226.542 28.7179 226.542 24.8861V8.22055C226.542 6.30762 226.933 4.94548 227.715 4.14596C228.496 3.34644 229.622 2.90818 231.084 2.83711C231.327 2.83711 231.452 2.76605 231.452 2.62983C231.452 2.49362 231.327 2.42255 231.084 2.42255C229.414 2.52915 228.194 2.57653 227.424 2.57653H219.376C218.855 2.57653 217.966 2.52323 216.711 2.42255C216.539 2.42255 216.438 2.48177 216.421 2.60614C216.403 2.73051 216.48 2.8075 216.658 2.84304C217.771 2.9141 218.618 3.34644 219.192 4.15188C219.767 4.9514 220.057 6.31354 220.057 8.22647V24.584C220.057 27.717 220.673 30.4472 221.911 32.7628C223.148 35.0785 224.913 36.867 227.217 38.1167C229.515 39.3722 232.216 40 235.319 40C238.173 40 240.649 39.3722 242.74 38.1167C244.83 36.8611 246.429 35.0489 247.549 32.6799C248.662 30.311 249.219 27.5215 249.219 24.3175V8.22055C249.219 6.30762 249.473 4.94548 249.977 4.14596C250.48 3.34644 251.22 2.90818 252.198 2.83711C252.369 2.80158 252.458 2.72459 252.458 2.60022C252.458 2.47585 252.369 2.41663 252.198 2.41663H252.192Z" fill="black"/>
<path d="M281.851 21.6465C279.778 20.0415 276.947 19.1235 273.358 18.8748C276.077 18.5609 278.185 17.6844 279.683 16.2334C281.182 14.7884 281.928 12.8636 281.928 10.4591C281.928 8.92522 281.466 7.55123 280.542 6.33122C279.618 5.11122 278.197 4.13403 276.284 3.40557C274.365 2.6712 272.002 2.30994 269.177 2.30994L262.905 2.41654C262.206 2.45207 261.283 2.48761 260.134 2.52314C258.985 2.55868 257.64 2.57644 256.112 2.57644C254.999 2.57644 253.986 2.54091 253.08 2.46984C252.873 2.46984 252.76 2.52906 252.743 2.65343C252.725 2.7778 252.837 2.83703 253.08 2.83703C254.265 2.9081 255.188 3.34043 255.852 4.14587C256.515 4.94539 256.847 6.30753 256.847 8.22046V33.509C256.847 35.4278 256.527 36.784 255.881 37.5836C255.236 38.3831 254.306 38.8213 253.086 38.8924C252.843 38.8924 252.731 38.9516 252.748 39.076C252.766 39.2004 252.879 39.2596 253.086 39.2596C253.992 39.1885 254.999 39.153 256.118 39.153C257.095 39.153 258.209 39.1707 259.464 39.2063C260.72 39.2418 261.662 39.2774 262.283 39.3129C265.487 39.384 267.821 39.4195 269.284 39.4195C274.336 39.4195 278.209 38.4423 280.909 36.4938C283.61 34.5454 284.96 31.8625 284.96 28.4453C284.96 25.5197 283.924 23.2574 281.851 21.6524V21.6465ZM275.005 36.5116C273.382 38.1639 271.161 38.9931 268.342 38.9931H265.31C264.475 38.9931 263.936 38.8213 263.687 38.4719C263.444 38.1225 263.32 37.4473 263.32 36.4346V4.56044C263.32 3.82606 263.397 3.34043 263.557 3.09761C263.711 2.85479 264.09 2.74819 264.682 2.78373L267.554 2.89033C269.681 2.9614 271.439 3.68985 272.831 5.08753C274.223 6.47928 274.922 8.48104 274.922 11.0987C274.922 13.7164 274.389 15.505 273.329 16.6894C272.269 17.8739 270.427 18.555 267.815 18.7267L265.357 18.8333C265.185 18.8689 265.097 18.9399 265.097 19.0406C265.097 19.1413 265.185 19.1946 265.357 19.1946L267.916 19.2479C274.253 19.3545 277.427 22.7303 277.427 29.387C277.427 32.4903 276.616 34.8652 274.999 36.5175L275.005 36.5116Z" fill="black"/>
<path d="M282.032 21.4375C279.959 19.8325 277.128 18.9146 273.539 18.6658C276.257 18.3519 278.366 17.4754 279.864 16.0244C281.362 14.5794 282.109 12.6546 282.109 10.2501C282.109 8.71624 281.647 7.34225 280.723 6.12224C279.799 4.90223 278.377 3.92504 276.465 3.19659C274.546 2.46222 272.183 2.10095 269.358 2.10095L263.086 2.20755C262.387 2.24309 261.463 2.27862 260.314 2.31416C259.165 2.34969 257.821 2.36746 256.293 2.36746C255.18 2.36746 254.167 2.33192 253.261 2.26086C253.053 2.26086 252.941 2.32008 252.923 2.44445C252.905 2.56882 253.018 2.62804 253.261 2.62804C254.445 2.69911 255.369 3.13144 256.032 3.93689C256.696 4.73641 257.027 6.09855 257.027 8.01147V33.3C257.027 35.2188 256.707 36.5751 256.062 37.3746C255.416 38.1741 254.487 38.6123 253.267 38.6834C253.024 38.6834 252.911 38.7426 252.929 38.867C252.947 38.9914 253.059 39.0506 253.267 39.0506C254.173 38.9795 255.18 38.944 256.299 38.944C257.276 38.944 258.389 38.9618 259.645 38.9973C260.901 39.0328 261.842 39.0684 262.464 39.1039C265.668 39.175 268.001 39.2105 269.464 39.2105C274.516 39.2105 278.389 38.2333 281.09 36.2849C283.79 34.3364 285.141 31.6536 285.141 28.2364C285.141 25.3107 284.104 23.0484 282.032 21.4434V21.4375ZM275.185 36.3026C273.563 37.955 271.342 38.7841 268.523 38.7841H265.49C264.655 38.7841 264.116 38.6123 263.868 38.2629C263.625 37.9135 263.5 37.2384 263.5 36.2256V4.35145C263.5 3.61708 263.577 3.13144 263.737 2.88863C263.891 2.64581 264.27 2.53921 264.863 2.57474L267.735 2.68134C269.861 2.75241 271.62 3.48086 273.012 4.87854C274.404 6.2703 275.102 8.27206 275.102 10.8897C275.102 13.5074 274.569 15.296 273.509 16.4805C272.449 17.6649 270.607 18.346 267.996 18.5178L265.538 18.6244C265.366 18.6599 265.277 18.731 265.277 18.8316C265.277 18.9323 265.366 18.9856 265.538 18.9856L268.096 19.0389C274.433 19.1455 277.608 22.5213 277.608 29.178C277.608 32.2813 276.796 34.6562 275.179 36.3085L275.185 36.3026Z" fill="black"/>
</svg>