<svg xmlns="http://www.w3.org/2000/svg" title="Isadora" width="180" xml:space="preserve" viewBox="0 0 820 184">
	<path fill="currentColor" d="M745.9,1.9h-4.4l-60.9,151.6l-36.2-55l0-0.2c58.1,0,64.4-96.6-16.7-96.6h-62.3h-2.1v14.1c-13.9-8.9-30.4-14-48.1-14
	        c-24.6,0-47.2,10-63.3,26.6c-1,1-2,2.1-3,3.2C434.1,13.8,411.5,1.9,381,1.9h-60.9c0,56.6,0,113.1,0,169.7L251.9,1.9h-4.4
	        l-44.8,110.6c-22.1-40.2-110.1-2.1-114.4-59.8c-0.8-9.8,1.5-19.2,8-27c10.8-13.9,30.2-20,47.2-20.2c16.3-0.3,34.1,4.5,45.2,16.2
	        c5.2,5.6,8.3,11.9,9.8,19.2l0.3,2l3.9-0.8l-0.3-2c-5-26.2-32.1-38.9-59.2-38.4c-28.5,0-141.5,0-141.5,0v3.8h38.4v172.9H1.6v3.9
	        c25.7,0,110.1,0,140,0c0.9,0,1.8,0.1,2.7,0.1c34.3,0,70.4-22.2,62.2-59.6c-0.1-0.4-0.2-0.7-0.3-1.1h89.1l24.8,60.6h0.1h4.3H381
	        c30.5,0,53.1-11.9,67.9-29.7c1,1.1,2,2.1,3,3.2c16.1,16.5,38.7,26.6,63.3,26.6c24.9,0,47.2-10,63.6-26.6
	        c16.1-16.3,26.4-38.9,26.4-63.7c0-24.8-10.3-47.4-26.4-63.7c-3.6-3.6-7.5-7-11.6-9.9V5.7h60.5c73.9,0,71.7,89.3,12.8,89.3l-1,0v3.4
	        l55.2,83.9h4.9l-16.3-24.7l14.6-36.1h91.3l24.8,60.6h4.4L745.9,1.9z M144.5,178.5c-24.5,0-54.7-13.4-57.5-39.9l-0.3-1.8l-4.1,0.5
	        l0.3,1.8c2.2,20,18.5,33.2,37.2,39.3H43.9V5.5h76C109.1,9,99.5,15,92.9,23.4C86.2,32,83.4,42.4,84.4,53
	        C89,118.9,191,70.9,202.6,123.4C210.1,158.5,176,178.5,144.5,178.5z M205.7,117.7L249.6,7.3l44.1,110.4H205.7z M381,178.4h-57
	        c0-56,0-116.6,0-172.6h57c29.4,0,51.1,11.6,65.3,28.8c-12.8,15.6-20.8,35.7-20.8,57.4c0,21.8,8,41.9,20.8,57.5
	        C432.2,166.7,410.4,178.4,381,178.4z M448.9,146.2c-12-14.8-19.3-33.5-19.3-54.2c0-20.6,7.4-39.4,19.3-54.2
	        C471.6,68.8,471.6,115.3,448.9,146.2z M563.3,163.3c-13.8,9.4-30.4,14.9-48.1,14.9c-23.6,0-45-9.8-60.5-25.6
	        c-1.1-1.1-2.2-2.2-3.2-3.4c24.5-32.5,24.5-82,0-114.5c1-1.2,2.1-2.3,3.2-3.4c15.6-15.8,36.9-25.6,60.5-25.6
	        c17.7,0,34.3,5.5,48.1,14.9V163.3z M576,31.4c15.3,15.5,24.9,36.9,24.9,60.7c0,23.8-9.5,45.1-24.9,60.7c-2.8,2.8-5.7,5.4-8.8,7.8
	        v-137C570.3,26,573.3,28.6,576,31.4z M699.7,117.7L743.6,7.3l44.1,110.4H699.7z">
		</path>
</svg>

